<?xml version="1.0" encoding="utf-8"?>
<!-- Generated by IcoMoon.io -->
<!DOCTYPE svg PUBLIC "-//W3C//DTD SVG 1.1//EN" "http://www.w3.org/Graphics/SVG/1.1/DTD/svg11.dtd">
<svg version="1.1" xmlns="http://www.w3.org/2000/svg" xmlns:xlink="http://www.w3.org/1999/xlink" width="64" height="64" viewBox="0 0 64 64">
<path fill="#444444" d="M53 54h-6c-0.552 0-1-0.448-1-1s0.448-1 1-1h5v-5c0-0.552 0.448-1 1-1 0.55 0 1 0.448 1 1v6c0 0.552-0.45 1-1 1zM53 42c-0.552 0-1-0.448-1-1v-6c0-0.552 0.448-1 1-1 0.55 0 1 0.448 1 1v6c0 0.552-0.45 1-1 1zM53 30c-0.552 0-1-0.448-1-1v-6c0-0.552 0.448-1 1-1 0.55 0 1 0.448 1 1v6c0 0.552-0.45 1-1 1zM53 18c-0.552 0-1-0.448-1-1v-5h-5c-0.552 0-1-0.448-1-1s0.448-1 1-1h6c0.55 0 1 0.448 1 1v6c0 0.552-0.45 1-1 1zM29.332 42.106c-0.368 0.37-0.966 0.37-1.336 0l-2.004-2.004c-0.004-0.006-0.002-0.014-0.006-0.018l-6.376-6.424c-0.37-0.368-0.37-0.966 0-1.336l2.004-2.006c0.37-0.37 0.968-0.37 1.338 0l5.72 5.762 12.028-12.026c0.368-0.37 0.966-0.37 1.336 0l2.004 2.006c0.372 0.37 0.372 0.968 0 1.338l-14.708 14.708zM41 12h-6c-0.552 0-1-0.448-1-1s0.448-1 1-1h6c0.55 0 1 0.448 1 1s-0.45 1-1 1zM29 12h-6c-0.552 0-1-0.448-1-1s0.448-1 1-1h6c0.55 0 1 0.448 1 1s-0.45 1-1 1zM17 54h-6c-0.552 0-1-0.448-1-1v-6c0-0.552 0.448-1 1-1s1 0.448 1 1v5h5c0.552 0 1 0.448 1 1s-0.448 1-1 1zM17 12h-5v5c0 0.552-0.448 1-1 1s-1-0.448-1-1v-6c0-0.552 0.448-1 1-1h6c0.552 0 1 0.448 1 1s-0.448 1-1 1zM11 22c0.552 0 1 0.448 1 1v6c0 0.552-0.448 1-1 1s-1-0.448-1-1v-6c0-0.552 0.448-1 1-1zM11 34c0.552 0 1 0.448 1 1v6c0 0.552-0.448 1-1 1s-1-0.448-1-1v-6c0-0.552 0.448-1 1-1zM23 52h6c0.55 0 1 0.448 1 1s-0.45 1-1 1h-6c-0.552 0-1-0.448-1-1s0.448-1 1-1zM35 52h6c0.55 0 1 0.448 1 1s-0.45 1-1 1h-6c-0.552 0-1-0.448-1-1s0.448-1 1-1z"></path>
</svg>
